<svg xmlns="http://www.w3.org/2000/svg" xmlns:xlink="http://www.w3.org/1999/xlink" height="200" width="400"><polygon points="0,200 0,100 1,99 2,98 3,97 4,98 5,99 6,98 7,97 8,96 9,97 10,96 11,95 12,96 13,97 14,98 15,99 16,100 17,101 18,102 19,103 20,104 21,105 22,104 23,103 24,102 25,103 26,102 27,101 28,102 29,103 30,104 31,103 32,102 33,103 34,104 35,103 36,102 37,101 38,102 39,103 40,102 41,101 42,100 43,99 44,98 45,97 46,96 47,95 48,94 49,95 50,96 51,97 52,98 53,99 54,100 55,101 56,100 57,99 58,98 59,99 60,100 61,99 62,98 63,99 64,98 65,99 66,100 67,101 68,102 69,101 70,102 71,101 72,100 73,99 74,100 75,101 76,102 77,103 78,102 79,103 80,104 81,105 82,104 83,103 84,104 85,105 86,106 87,107 88,106 89,107 90,106 91,105 92,104 93,105 94,106 95,105 96,104 97,105 98,104 99,103 100,102 101,101 102,100 103,101 104,102 105,101 106,100 107,99 108,100 109,99 110,100 111,101 112,102 113,103 114,102 115,103 116,104 117,105 118,106 119,105 120,104 121,103 122,102 123,103 124,104 125,103 126,102 127,101 128,100 129,99 130,98 131,99 132,100 133,101 134,102 135,103 136,102 137,103 138,104 139,105 140,106 141,105 142,106 143,107 144,106 145,107 146,108 147,109 148,110 149,109 150,110 151,109 152,108 153,109 154,108 155,107 156,106 157,105 158,104 159,103 160,104 161,103 162,102 163,103 164,102 165,103 166,102 167,103 168,102 169,103 170,104 171,105 172,106 173,107 174,106 175,107 176,106 177,105 178,104 179,103 180,102 181,101 182,102 183,101 184,100 185,101 186,102 187,101 188,102 189,101 190,100 191,99 192,98 193,99 194,98 195,97 196,96 197,95 198,94 199,95 200,96 201,97 202,98 203,99 204,100 205,101 206,102 207,103 208,102 209,103 210,102 211,101 212,102 213,103 214,102 215,103 216,104 217,105 218,104 219,103 220,102 221,101 222,100 223,101 224,102 225,101 226,102 227,101 228,100 229,101 230,100 231,99 232,100 233,101 234,102 235,103 236,102 237,103 238,104 239,103 240,104 241,103 242,104 243,103 244,102 245,103 246,104 247,105 248,104 249,105 250,106 251,105 252,104 253,103 254,104 255,105 256,106 257,107 258,108 259,107 260,106 261,107 262,106 263,107 264,108 265,109 266,110 267,111 268,112 269,111 270,110 271,111 272,112 273,111 274,112 275,113 276,114 277,113 278,112 279,111 280,112 281,111 282,112 283,111 284,110 285,111 286,112 287,111 288,112 289,113 290,112 291,113 292,114 293,113 294,112 295,111 296,112 297,111 298,110 299,109 300,108 301,107 302,106 303,105 304,104 305,105 306,106 307,107 308,108 309,107 310,108 311,109 312,108 313,109 314,108 315,109 316,108 317,109 318,108 319,109 320,108 321,109 322,108 323,107 324,106 325,105 326,104 327,105 328,104 329,105 330,106 331,105 332,106 333,107 334,106 335,107 336,108 337,109 338,108 339,107 340,108 341,107 342,108 343,109 344,108 345,107 346,106 347,105 348,106 349,105 350,104 351,105 352,106 353,107 354,108 355,109 356,110 357,109 358,110 359,109 360,110 361,109 362,108 363,109 364,110 365,111 366,112 367,113 368,114 369,113 370,112 371,113 372,114 373,113 374,114 375,113 376,112 377,113 378,112 379,113 380,114 381,113 382,114 383,115 384,116 385,117 386,118 387,117 388,116 389,117 390,116 391,115 392,114 393,115 394,116 395,117 396,116 397,115 398,116 399,115 400,200 " style="fill:rgb(59,11,103);stroke:rgb(0,0,3)"></polygon><polygon points="0,200 0,100 1,101 2,100 3,99 4,100 5,101 6,100 7,99 8,100 9,101 10,100 11,99 12,98 13,99 14,100 15,99 16,100 17,101 18,100 19,101 20,102 21,101 22,100 23,99 24,98 25,97 26,98 27,97 28,98 29,97 30,96 31,95 32,96 33,97 34,96 35,95 36,94 37,93 38,92 39,93 40,94 41,95 42,96 43,97 44,98 45,99 46,100 47,101 48,100 49,101 50,100 51,101 52,102 53,101 54,100 55,101 56,100 57,101 58,102 59,101 60,100 61,99 62,98 63,99 64,98 65,97 66,98 67,99 68,98 69,99 70,98 71,99 72,100 73,101 74,102 75,101 76,100 77,99 78,100 79,101 80,102 81,103 82,104 83,103 84,104 85,103 86,102 87,103 88,102 89,101 90,102 91,103 92,104 93,105 94,104 95,103 96,104 97,105 98,106 99,105 100,106 101,105 102,104 103,105 104,106 105,107 106,106 107,105 108,106 109,105 110,106 111,105 112,106 113,107 114,106 115,105 116,106 117,107 118,106 119,105 120,104 121,103 122,102 123,103 124,102 125,103 126,102 127,101 128,102 129,101 130,100 131,101 132,102 133,103 134,104 135,103 136,102 137,101 138,102 139,103 140,104 141,105 142,104 143,103 144,102 145,103 146,104 147,105 148,104 149,105 150,106 151,107 152,108 153,107 154,108 155,107 156,106 157,107 158,108 159,109 160,110 161,109 162,110 163,111 164,110 165,111 166,112 167,113 168,114 169,115 170,114 171,115 172,116 173,117 174,116 175,117 176,116 177,115 178,114 179,115 180,116 181,115 182,114 183,115 184,114 185,113 186,114 187,115 188,114 189,113 190,112 191,113 192,114 193,115 194,116 195,115 196,116 197,117 198,116 199,117 200,116 201,115 202,116 203,115 204,116 205,115 206,116 207,115 208,114 209,113 210,112 211,111 212,110 213,111 214,112 215,111 216,112 217,111 218,110 219,111 220,110 221,109 222,110 223,111 224,112 225,113 226,112 227,111 228,110 229,111 230,112 231,111 232,112 233,111 234,112 235,111 236,112 237,111 238,112 239,113 240,114 241,115 242,116 243,117 244,118 245,117 246,116 247,115 248,114 249,115 250,114 251,113 252,114 253,115 254,114 255,113 256,114 257,115 258,114 259,113 260,112 261,113 262,114 263,115 264,116 265,115 266,116 267,117 268,116 269,115 270,114 271,115 272,116 273,117 274,118 275,117 276,118 277,117 278,116 279,115 280,114 281,113 282,112 283,111 284,112 285,111 286,110 287,109 288,108 289,107 290,106 291,107 292,108 293,107 294,106 295,105 296,106 297,105 298,106 299,105 300,104 301,103 302,102 303,101 304,100 305,99 306,98 307,97 308,98 309,97 310,98 311,97 312,96 313,97 314,96 315,95 316,94 317,93 318,92 319,93 320,94 321,93 322,94 323,93 324,92 325,93 326,92 327,93 328,94 329,93 330,92 331,93 332,94 333,95 334,94 335,93 336,94 337,93 338,92 339,91 340,92 341,91 342,92 343,93 344,92 345,91 346,92 347,93 348,92 349,93 350,92 351,91 352,90 353,91 354,92 355,91 356,90 357,89 358,90 359,91 360,92 361,91 362,90 363,91 364,92 365,93 366,92 367,93 368,94 369,93 370,94 371,93 372,92 373,91 374,90 375,89 376,90 377,89 378,88 379,89 380,90 381,91 382,90 383,89 384,88 385,87 386,86 387,85 388,84 389,83 390,84 391,85 392,86 393,87 394,88 395,87 396,86 397,85 398,86 399,87 400,200 " style="fill:rgb(170,100,32);stroke:rgb(70,0,0)"></polygon><polygon points="0,200 0,100 1,99 2,100 3,101 4,100 5,101 6,100 7,101 8,102 9,103 10,104 11,103 12,102 13,103 14,104 15,105 16,106 17,105 18,106 19,105 20,104 21,105 22,104 23,103 24,102 25,103 26,102 27,101 28,102 29,103 30,104 31,105 32,104 33,105 34,104 35,103 36,102 37,101 38,102 39,103 40,102 41,101 42,102 43,101 44,100 45,101 46,102 47,101 48,102 49,103 50,102 51,103 52,104 53,103 54,102 55,101 56,102 57,101 58,102 59,101 60,100 61,101 62,102 63,101 64,102 65,101 66,100 67,101 68,100 69,99 70,98 71,99 72,98 73,99 74,100 75,99 76,100 77,99 78,100 79,101 80,102 81,101 82,100 83,101 84,102 85,101 86,102 87,103 88,104 89,103 90,102 91,103 92,104 93,103 94,102 95,101 96,100 97,101 98,100 99,101 100,102 101,101 102,100 103,101 104,102 105,101 106,100 107,99 108,98 109,97 110,98 111,99 112,98 113,99 114,100 115,99 116,98 117,97 118,96 119,97 120,98 121,99 122,98 123,99 124,98 125,97 126,96 127,97 128,98 129,99 130,98 131,99 132,98 133,97 134,96 135,95 136,94 137,93 138,92 139,93 140,92 141,91 142,92 143,93 144,94 145,95 146,96 147,95 148,94 149,93 150,94 151,93 152,94 153,95 154,94 155,93 156,92 157,93 158,94 159,95 160,96 161,97 162,96 163,95 164,96 165,95 166,94 167,95 168,94 169,93 170,94 171,93 172,94 173,95 174,94 175,95 176,94 177,95 178,94 179,93 180,94 181,93 182,92 183,93 184,92 185,93 186,92 187,93 188,94 189,95 190,96 191,97 192,98 193,99 194,100 195,101 196,100 197,101 198,100 199,99 200,100 201,99 202,98 203,99 204,98 205,99 206,100 207,101 208,102 209,103 210,102 211,101 212,102 213,103 214,104 215,103 216,102 217,103 218,102 219,103 220,104 221,103 222,104 223,103 224,102 225,103 226,104 227,105 228,104 229,105 230,106 231,105 232,106 233,105 234,104 235,105 236,106 237,105 238,104 239,103 240,102 241,103 242,102 243,103 244,102 245,101 246,102 247,101 248,102 249,103 250,102 251,101 252,100 253,101 254,102 255,101 256,100 257,99 258,100 259,99 260,100 261,99 262,98 263,99 264,100 265,101 266,102 267,103 268,102 269,101 270,102 271,101 272,100 273,99 274,98 275,97 276,98 277,99 278,100 279,99 280,100 281,99 282,100 283,99 284,98 285,97 286,96 287,97 288,98 289,97 290,96 291,97 292,96 293,95 294,96 295,97 296,96 297,95 298,96 299,97 300,96 301,97 302,98 303,99 304,98 305,99 306,98 307,99 308,98 309,99 310,100 311,99 312,98 313,99 314,98 315,97 316,98 317,97 318,98 319,97 320,96 321,97 322,98 323,97 324,96 325,97 326,96 327,95 328,94 329,95 330,96 331,97 332,96 333,97 334,98 335,99 336,98 337,97 338,98 339,97 340,98 341,97 342,96 343,95 344,94 345,93 346,94 347,95 348,94 349,95 350,94 351,93 352,94 353,95 354,96 355,97 356,96 357,97 358,96 359,95 360,96 361,95 362,94 363,95 364,94 365,93 366,94 367,93 368,92 369,93 370,92 371,91 372,92 373,91 374,92 375,93 376,92 377,91 378,92 379,93 380,94 381,95 382,96 383,97 384,98 385,97 386,98 387,99 388,100 389,101 390,100 391,101 392,100 393,99 394,100 395,99 396,98 397,99 398,98 399,97 400,200 " style="fill:rgb(105,221,33);stroke:rgb(5,121,0)"></polygon><polygon points="0,200 0,100 1,99 2,98 3,97 4,96 5,97 6,96 7,97 8,96 9,97 10,98 11,99 12,98 13,97 14,98 15,97 16,96 17,95 18,94 19,93 20,94 21,95 22,96 23,97 24,98 25,97 26,96 27,95 28,96 29,97 30,98 31,99 32,100 33,101 34,102 35,103 36,102 37,103 38,104 39,105 40,104 41,103 42,102 43,103 44,102 45,101 46,102 47,101 48,100 49,99 50,100 51,101 52,100 53,101 54,100 55,99 56,98 57,99 58,98 59,99 60,100 61,99 62,98 63,97 64,96 65,95 66,94 67,95 68,94 69,95 70,96 71,97 72,98 73,99 74,98 75,99 76,98 77,99 78,98 79,99 80,100 81,101 82,100 83,101 84,100 85,99 86,98 87,99 88,98 89,97 90,98 91,99 92,98 93,97 94,96 95,95 96,94 97,93 98,92 99,91 100,90 101,91 102,90 103,91 104,90 105,91 106,92 107,91 108,92 109,91 110,90 111,91 112,90 113,89 114,88 115,89 116,90 117,89 118,88 119,87 120,86 121,85 122,86 123,85 124,84 125,85 126,86 127,87 128,86 129,85 130,84 131,83 132,84 133,83 134,82 135,83 136,84 137,85 138,86 139,87 140,86 141,85 142,86 143,87 144,88 145,89 146,88 147,87 148,88 149,89 150,88 151,87 152,88 153,89 154,90 155,89 156,90 157,91 158,90 159,91 160,92 161,91 162,90 163,91 164,90 165,91 166,90 167,89 168,90 169,89 170,90 171,89 172,90 173,91 174,90 175,89 176,90 177,89 178,88 179,87 180,88 181,87 182,86 183,85 184,86 185,87 186,86 187,85 188,84 189,83 190,84 191,83 192,84 193,85 194,84 195,85 196,86 197,87 198,86 199,87 200,88 201,89 202,88 203,89 204,88 205,89 206,88 207,87 208,88 209,87 210,88 211,89 212,88 213,87 214,86 215,85 216,84 217,83 218,84 219,85 220,84 221,85 222,86 223,85 224,86 225,87 226,88 227,89 228,90 229,89 230,90 231,91 232,92 233,93 234,92 235,91 236,90 237,91 238,92 239,93 240,94 241,93 242,94 243,93 244,94 245,95 246,96 247,95 248,96 249,95 250,96 251,95 252,96 253,95 254,96 255,95 256,96 257,95 258,96 259,97 260,96 261,95 262,94 263,93 264,94 265,93 266,92 267,91 268,92 269,93 270,94 271,93 272,94 273,93 274,92 275,91 276,92 277,91 278,90 279,91 280,92 281,93 282,94 283,95 284,96 285,97 286,98 287,97 288,98 289,97 290,98 291,97 292,96 293,95 294,96 295,95 296,96 297,95 298,94 299,93 300,94 301,93 302,92 303,93 304,92 305,91 306,90 307,91 308,92 309,93 310,94 311,93 312,92 313,91 314,92 315,91 316,92 317,93 318,94 319,95 320,94 321,95 322,94 323,95 324,96 325,95 326,94 327,93 328,92 329,91 330,90 331,91 332,90 333,91 334,90 335,91 336,92 337,93 338,94 339,95 340,94 341,93 342,94 343,95 344,96 345,97 346,96 347,97 348,96 349,97 350,96 351,97 352,98 353,99 354,100 355,99 356,100 357,101 358,100 359,99 360,100 361,99 362,100 363,101 364,100 365,99 366,100 367,101 368,100 369,99 370,100 371,101 372,100 373,99 374,98 375,99 376,98 377,97 378,98 379,99 380,100 381,101 382,102 383,101 384,100 385,101 386,102 387,103 388,102 389,103 390,102 391,103 392,102 393,103 394,102 395,101 396,102 397,103 398,102 399,103 400,200 " style="fill:rgb(159,78,87);stroke:rgb(59,0,0)"></polygon><polygon points="0,200 0,100 1,99 2,98 3,99 4,98 5,97 6,98 7,99 8,98 9,97 10,98 11,97 12,98 13,99 14,98 15,99 16,98 17,97 18,98 19,97 20,96 21,97 22,98 23,97 24,98 25,99 26,100 27,99 28,98 29,99 30,98 31,97 32,96 33,97 34,96 35,97 36,96 37,97 38,98 39,99 40,98 41,99 42,100 43,101 44,100 45,99 46,98 47,97 48,96 49,95 50,94 51,93 52,94 53,93 54,92 55,93 56,94 57,93 58,92 59,91 60,90 61,91 62,92 63,91 64,90 65,91 66,90 67,91 68,90 69,89 70,90 71,89 72,90 73,89 74,90 75,91 76,90 77,89 78,88 79,89 80,90 81,91 82,90 83,89 84,88 85,87 86,86 87,87 88,88 89,87 90,88 91,87 92,86 93,85 94,84 95,85 96,86 97,85 98,86 99,87 100,86 101,85 102,84 103,83 104,84 105,83 106,84 107,83 108,84 109,85 110,84 111,85 112,86 113,85 114,86 115,85 116,86 117,85 118,84 119,85 120,86 121,85 122,84 123,85 124,84 125,85 126,84 127,85 128,84 129,85 130,86 131,87 132,88 133,87 134,88 135,87 136,86 137,85 138,86 139,85 140,86 141,85 142,86 143,87 144,88 145,89 146,90 147,89 148,90 149,89 150,88 151,89 152,88 153,87 154,88 155,89 156,88 157,87 158,88 159,89 160,90 161,89 162,88 163,87 164,86 165,87 166,86 167,85 168,84 169,85 170,86 171,87 172,86 173,85 174,84 175,85 176,86 177,85 178,86 179,87 180,88 181,87 182,86 183,87 184,86 185,85 186,86 187,85 188,86 189,85 190,86 191,85 192,84 193,83 194,84 195,85 196,86 197,87 198,86 199,85 200,84 201,85 202,84 203,83 204,82 205,83 206,84 207,83 208,82 209,81 210,82 211,81 212,80 213,81 214,82 215,81 216,82 217,83 218,84 219,85 220,84 221,83 222,84 223,83 224,82 225,83 226,84 227,83 228,84 229,83 230,84 231,85 232,84 233,83 234,84 235,85 236,84 237,85 238,84 239,85 240,86 241,85 242,84 243,85 244,84 245,83 246,82 247,81 248,82 249,81 250,82 251,81 252,82 253,83 254,82 255,83 256,82 257,83 258,84 259,85 260,84 261,85 262,86 263,85 264,84 265,85 266,84 267,83 268,82 269,83 270,84 271,83 272,82 273,81 274,82 275,83 276,84 277,85 278,86 279,87 280,86 281,87 282,88 283,87 284,86 285,85 286,84 287,83 288,82 289,81 290,80 291,81 292,80 293,79 294,80 295,81 296,82 297,81 298,80 299,79 300,80 301,81 302,82 303,83 304,84 305,83 306,82 307,83 308,82 309,81 310,80 311,81 312,80 313,81 314,80 315,79 316,78 317,77 318,78 319,79 320,78 321,77 322,78 323,79 324,78 325,77 326,76 327,75 328,74 329,73 330,74 331,73 332,74 333,73 334,74 335,73 336,72 337,73 338,74 339,75 340,76 341,75 342,76 343,75 344,74 345,73 346,74 347,73 348,74 349,75 350,74 351,75 352,76 353,77 354,78 355,79 356,80 357,81 358,82 359,81 360,82 361,81 362,82 363,81 364,80 365,81 366,82 367,81 368,80 369,79 370,80 371,81 372,82 373,81 374,82 375,81 376,82 377,81 378,80 379,79 380,78 381,77 382,76 383,77 384,76 385,75 386,74 387,75 388,76 389,77 390,76 391,75 392,76 393,75 394,74 395,75 396,76 397,75 398,74 399,73 400,200 " style="fill:rgb(80,147,101);stroke:rgb(0,47,1)"></polygon><polygon points="0,200 0,100 1,101 2,100 3,101 4,100 5,101 6,102 7,101 8,102 9,103 10,104 11,105 12,106 13,107 14,106 15,105 16,104 17,105 18,104 19,103 20,102 21,101 22,102 23,103 24,104 25,105 26,104 27,103 28,102 29,101 30,100 31,101 32,100 33,99 34,98 35,97 36,98 37,99 38,98 39,99 40,100 41,101 42,102 43,101 44,102 45,101 46,102 47,101 48,100 49,99 50,100 51,99 52,100 53,101 54,100 55,101 56,102 57,101 58,102 59,103 60,102 61,103 62,104 63,105 64,106 65,105 66,106 67,107 68,106 69,105 70,106 71,107 72,106 73,107 74,106 75,105 76,104 77,105 78,104 79,105 80,106 81,105 82,106 83,105 84,106 85,105 86,106 87,107 88,108 89,109 90,110 91,109 92,108 93,109 94,108 95,107 96,106 97,107 98,106 99,105 100,104 101,105 102,104 103,105 104,104 105,103 106,104 107,103 108,102 109,103 110,104 111,105 112,104 113,103 114,102 115,103 116,104 117,105 118,106 119,107 120,108 121,107 122,106 123,107 124,106 125,105 126,104 127,103 128,104 129,103 130,104 131,103 132,102 133,103 134,102 135,101 136,100 137,99 138,98 139,97 140,98 141,99 142,100 143,101 144,102 145,101 146,102 147,101 148,100 149,99 150,100 151,101 152,102 153,101 154,100 155,99 156,98 157,99 158,98 159,99 160,100 161,101 162,100 163,99 164,100 165,101 166,102 167,103 168,104 169,105 170,106 171,105 172,106 173,107 174,108 175,109 176,110 177,109 178,110 179,111 180,112 181,111 182,110 183,109 184,108 185,107 186,108 187,109 188,110 189,109 190,108 191,109 192,108 193,109 194,110 195,109 196,110 197,109 198,108 199,109 200,108 201,107 202,108 203,109 204,108 205,109 206,110 207,111 208,112 209,113 210,112 211,111 212,112 213,111 214,112 215,113 216,114 217,113 218,114 219,115 220,114 221,113 222,112 223,111 224,110 225,111 226,112 227,111 228,112 229,113 230,112 231,113 232,114 233,113 234,114 235,113 236,114 237,113 238,114 239,113 240,114 241,113 242,112 243,113 244,114 245,113 246,114 247,113 248,112 249,113 250,114 251,115 252,116 253,115 254,114 255,113 256,112 257,113 258,114 259,115 260,116 261,117 262,116 263,115 264,114 265,115 266,116 267,117 268,116 269,117 270,116 271,117 272,118 273,119 274,118 275,119 276,118 277,119 278,118 279,117 280,118 281,117 282,118 283,119 284,118 285,117 286,118 287,117 288,118 289,119 290,118 291,117 292,118 293,117 294,118 295,117 296,118 297,119 298,120 299,119 300,118 301,117 302,118 303,117 304,118 305,119 306,120 307,121 308,120 309,121 310,122 311,121 312,122 313,123 314,124 315,123 316,122 317,121 318,120 319,119 320,120 321,119 322,118 323,119 324,118 325,117 326,116 327,117 328,118 329,119 330,118 331,117 332,118 333,119 334,118 335,119 336,118 337,117 338,116 339,117 340,118 341,117 342,116 343,115 344,114 345,113 346,112 347,113 348,112 349,111 350,110 351,111 352,110 353,111 354,112 355,111 356,112 357,111 358,110 359,109 360,110 361,109 362,110 363,109 364,110 365,111 366,112 367,113 368,114 369,113 370,112 371,111 372,110 373,109 374,110 375,109 376,108 377,109 378,110 379,109 380,108 381,109 382,110 383,109 384,110 385,109 386,108 387,107 388,106 389,107 390,108 391,107 392,108 393,107 394,106 395,105 396,104 397,105 398,106 399,107 400,200 " style="fill:rgb(158,56,191);stroke:rgb(58,0,91)"></polygon><polygon points="0,200 0,100 1,101 2,100 3,101 4,102 5,101 6,102 7,101 8,100 9,101 10,102 11,103 12,104 13,105 14,106 15,105 16,106 17,107 18,108 19,107 20,108 21,109 22,110 23,109 24,110 25,111 26,112 27,111 28,112 29,113 30,114 31,115 32,116 33,117 34,118 35,119 36,120 37,119 38,120 39,121 40,120 41,121 42,120 43,119 44,120 45,121 46,120 47,121 48,120 49,121 50,122 51,121 52,120 53,121 54,122 55,123 56,122 57,123 58,122 59,121 60,120 61,121 62,120 63,121 64,122 65,123 66,122 67,121 68,122 69,121 70,120 71,119 72,120 73,121 74,120 75,119 76,118 77,119 78,118 79,119 80,120 81,121 82,122 83,123 84,122 85,123 86,122 87,121 88,120 89,121 90,120 91,119 92,120 93,121 94,120 95,121 96,122 97,121 98,122 99,123 100,122 101,121 102,120 103,121 104,122 105,121 106,122 107,121 108,120 109,121 110,120 111,121 112,122 113,121 114,120 115,119 116,120 117,121 118,122 119,123 120,124 121,123 122,124 123,123 124,122 125,123 126,122 127,123 128,122 129,121 130,122 131,123 132,124 133,123 134,124 135,123 136,124 137,123 138,124 139,125 140,126 141,127 142,128 143,127 144,126 145,127 146,126 147,125 148,126 149,127 150,128 151,129 152,128 153,129 154,128 155,129 156,130 157,131 158,130 159,129 160,128 161,129 162,128 163,127 164,126 165,125 166,126 167,125 168,126 169,127 170,126 171,125 172,126 173,127 174,126 175,125 176,124 177,123 178,124 179,123 180,124 181,123 182,122 183,121 184,120 185,119 186,118 187,119 188,120 189,119 190,118 191,117 192,118 193,119 194,118 195,117 196,118 197,119 198,118 199,117 200,116 201,117 202,116 203,115 204,114 205,113 206,112 207,113 208,112 209,113 210,112 211,111 212,110 213,111 214,110 215,109 216,110 217,111 218,112 219,111 220,112 221,113 222,112 223,113 224,112 225,111 226,112 227,111 228,110 229,109 230,110 231,109 232,108 233,107 234,108 235,107 236,108 237,109 238,110 239,111 240,110 241,111 242,110 243,109 244,108 245,107 246,106 247,105 248,106 249,107 250,108 251,107 252,108 253,107 254,108 255,109 256,108 257,107 258,108 259,107 260,106 261,107 262,106 263,105 264,104 265,103 266,102 267,103 268,102 269,103 270,104 271,103 272,104 273,105 274,106 275,105 276,106 277,107 278,108 279,109 280,110 281,111 282,110 283,111 284,112 285,113 286,112 287,111 288,110 289,109 290,108 291,109 292,108 293,109 294,108 295,109 296,110 297,109 298,110 299,111 300,110 301,109 302,110 303,109 304,108 305,109 306,110 307,111 308,110 309,111 310,112 311,111 312,110 313,111 314,110 315,111 316,110 317,111 318,112 319,111 320,110 321,109 322,110 323,109 324,108 325,107 326,108 327,107 328,106 329,105 330,106 331,107 332,106 333,105 334,104 335,103 336,104 337,105 338,106 339,105 340,104 341,103 342,102 343,103 344,102 345,103 346,104 347,105 348,106 349,107 350,108 351,107 352,106 353,105 354,104 355,105 356,106 357,105 358,106 359,107 360,106 361,107 362,108 363,109 364,108 365,107 366,106 367,105 368,104 369,103 370,102 371,103 372,104 373,105 374,106 375,105 376,106 377,105 378,104 379,105 380,104 381,105 382,104 383,103 384,102 385,103 386,102 387,101 388,100 389,101 390,100 391,99 392,98 393,99 394,100 395,101 396,100 397,99 398,100 399,99 400,200 " style="fill:rgb(82,67,97);stroke:rgb(0,0,0)"></polygon><polygon points="0,200 0,100 1,101 2,102 3,101 4,102 5,103 6,102 7,101 8,102 9,101 10,102 11,103 12,102 13,103 14,102 15,103 16,104 17,103 18,102 19,101 20,100 21,101 22,100 23,101 24,102 25,101 26,102 27,101 28,102 29,103 30,102 31,103 32,104 33,103 34,104 35,103 36,102 37,101 38,102 39,103 40,102 41,101 42,100 43,99 44,100 45,101 46,100 47,99 48,98 49,99 50,98 51,99 52,98 53,97 54,98 55,97 56,96 57,97 58,96 59,95 60,96 61,95 62,94 63,93 64,92 65,91 66,92 67,91 68,92 69,91 70,90 71,91 72,92 73,93 74,94 75,95 76,96 77,95 78,94 79,95 80,96 81,95 82,94 83,93 84,94 85,93 86,92 87,93 88,94 89,95 90,96 91,95 92,94 93,93 94,92 95,91 96,92 97,91 98,92 99,93 100,94 101,93 102,94 103,93 104,92 105,91 106,90 107,91 108,90 109,89 110,88 111,89 112,88 113,89 114,88 115,89 116,90 117,89 118,90 119,89 120,88 121,89 122,88 123,89 124,88 125,89 126,90 127,91 128,92 129,93 130,92 131,91 132,92 133,91 134,90 135,89 136,88 137,89 138,88 139,87 140,86 141,87 142,88 143,89 144,88 145,89 146,90 147,89 148,90 149,91 150,92 151,91 152,92 153,93 154,92 155,91 156,90 157,91 158,90 159,89 160,88 161,89 162,90 163,89 164,90 165,89 166,88 167,89 168,90 169,89 170,88 171,87 172,86 173,85 174,84 175,85 176,86 177,87 178,86 179,85 180,86 181,85 182,86 183,87 184,88 185,89 186,88 187,89 188,90 189,91 190,92 191,91 192,90 193,89 194,88 195,89 196,90 197,91 198,90 199,89 200,90 201,91 202,90 203,91 204,92 205,93 206,94 207,93 208,94 209,95 210,96 211,97 212,96 213,95 214,96 215,97 216,98 217,97 218,96 219,95 220,96 221,97 222,96 223,97 224,96 225,97 226,98 227,97 228,96 229,95 230,96 231,97 232,98 233,99 234,98 235,99 236,98 237,97 238,96 239,97 240,98 241,99 242,98 243,99 244,98 245,97 246,98 247,97 248,96 249,97 250,98 251,97 252,96 253,95 254,96 255,97 256,98 257,99 258,98 259,99 260,100 261,101 262,102 263,101 264,100 265,101 266,100 267,99 268,98 269,97 270,96 271,95 272,94 273,95 274,94 275,93 276,94 277,95 278,94 279,93 280,92 281,91 282,92 283,93 284,94 285,95 286,96 287,97 288,98 289,99 290,98 291,97 292,96 293,95 294,94 295,93 296,92 297,93 298,94 299,95 300,94 301,93 302,94 303,95 304,96 305,95 306,94 307,93 308,94 309,95 310,96 311,97 312,98 313,99 314,98 315,97 316,96 317,95 318,96 319,95 320,94 321,93 322,92 323,91 324,92 325,91 326,92 327,91 328,92 329,93 330,92 331,91 332,92 333,91 334,90 335,89 336,88 337,89 338,88 339,89 340,88 341,87 342,86 343,85 344,84 345,85 346,86 347,85 348,84 349,85 350,86 351,85 352,86 353,87 354,86 355,85 356,86 357,85 358,84 359,83 360,84 361,83 362,82 363,83 364,84 365,85 366,84 367,83 368,84 369,83 370,82 371,81 372,80 373,81 374,82 375,83 376,84 377,83 378,84 379,85 380,84 381,85 382,84 383,85 384,86 385,87 386,88 387,87 388,88 389,87 390,86 391,85 392,84 393,85 394,86 395,87 396,88 397,87 398,86 399,85 400,200 " style="fill:rgb(193,253,242);stroke:rgb(93,153,142)"></polygon><polygon points="0,200 0,100 1,101 2,102 3,103 4,102 5,103 6,104 7,103 8,104 9,103 10,102 11,101 12,100 13,99 14,98 15,99 16,100 17,101 18,102 19,101 20,100 21,101 22,102 23,103 24,104 25,105 26,104 27,103 28,102 29,101 30,102 31,101 32,100 33,101 34,102 35,103 36,104 37,103 38,102 39,101 40,102 41,103 42,102 43,101 44,100 45,101 46,102 47,103 48,104 49,105 50,104 51,103 52,102 53,103 54,104 55,105 56,104 57,103 58,104 59,103 60,102 61,103 62,104 63,105 64,104 65,105 66,106 67,107 68,108 69,109 70,108 71,109 72,110 73,111 74,112 75,111 76,110 77,109 78,108 79,107 80,106 81,105 82,106 83,105 84,106 85,107 86,106 87,105 88,106 89,105 90,104 91,103 92,102 93,101 94,102 95,101 96,100 97,101 98,102 99,103 100,102 101,103 102,104 103,103 104,102 105,101 106,102 107,103 108,104 109,105 110,106 111,107 112,108 113,107 114,108 115,107 116,108 117,107 118,108 119,109 120,110 121,111 122,112 123,113 124,114 125,113 126,114 127,115 128,114 129,113 130,112 131,113 132,114 133,113 134,114 135,115 136,116 137,115 138,116 139,117 140,118 141,119 142,118 143,117 144,118 145,119 146,118 147,119 148,118 149,119 150,118 151,117 152,118 153,119 154,118 155,117 156,118 157,117 158,118 159,117 160,116 161,117 162,118 163,117 164,118 165,119 166,120 167,119 168,118 169,117 170,116 171,115 172,116 173,117 174,116 175,115 176,116 177,115 178,114 179,113 180,112 181,111 182,112 183,111 184,112 185,113 186,114 187,113 188,112 189,111 190,110 191,111 192,112 193,111 194,110 195,111 196,110 197,109 198,108 199,109 200,110 201,109 202,108 203,109 204,110 205,111 206,110 207,111 208,110 209,111 210,112 211,113 212,114 213,115 214,114 215,115 216,114 217,113 218,114 219,113 220,112 221,111 222,112 223,113 224,112 225,111 226,112 227,113 228,112 229,113 230,112 231,113 232,114 233,113 234,114 235,113 236,114 237,113 238,112 239,113 240,114 241,115 242,116 243,115 244,114 245,115 246,114 247,115 248,116 249,115 250,116 251,117 252,118 253,119 254,120 255,121 256,120 257,121 258,122 259,121 260,120 261,121 262,122 263,123 264,124 265,125 266,124 267,123 268,122 269,123 270,124 271,125 272,126 273,127 274,126 275,125 276,126 277,125 278,124 279,125 280,124 281,125 282,126 283,127 284,128 285,127 286,126 287,127 288,128 289,129 290,128 291,127 292,126 293,127 294,126 295,125 296,126 297,125 298,124 299,123 300,124 301,123 302,124 303,123 304,122 305,123 306,124 307,123 308,122 309,121 310,120 311,119 312,120 313,119 314,118 315,119 316,120 317,121 318,120 319,119 320,120 321,121 322,120 323,119 324,120 325,121 326,120 327,119 328,120 329,121 330,122 331,121 332,120 333,121 334,120 335,119 336,120 337,121 338,120 339,119 340,118 341,119 342,120 343,121 344,120 345,121 346,122 347,123 348,124 349,123 350,122 351,123 352,124 353,123 354,124 355,123 356,122 357,121 358,122 359,123 360,122 361,123 362,124 363,123 364,124 365,123 366,124 367,125 368,124 369,125 370,126 371,125 372,124 373,125 374,126 375,125 376,124 377,125 378,124 379,123 380,122 381,121 382,120 383,119 384,120 385,119 386,120 387,121 388,122 389,121 390,122 391,121 392,122 393,121 394,122 395,123 396,124 397,123 398,124 399,123 400,200 " style="fill:rgb(43,117,182);stroke:rgb(0,17,82)"></polygon><polygon points="0,200 0,100 1,99 2,100 3,99 4,100 5,101 6,100 7,99 8,100 9,101 10,102 11,101 12,102 13,101 14,100 15,99 16,100 17,101 18,102 19,101 20,100 21,99 22,98 23,99 24,98 25,97 26,96 27,97 28,98 29,99 30,98 31,99 32,100 33,101 34,100 35,99 36,100 37,99 38,100 39,101 40,100 41,99 42,98 43,99 44,98 45,99 46,100 47,99 48,98 49,99 50,100 51,101 52,102 53,101 54,102 55,103 56,102 57,101 58,102 59,103 60,104 61,105 62,106 63,107 64,106 65,107 66,106 67,107 68,108 69,107 70,108 71,109 72,108 73,109 74,108 75,107 76,106 77,105 78,104 79,103 80,102 81,101 82,102 83,103 84,104 85,105 86,104 87,105 88,106 89,105 90,106 91,107 92,106 93,107 94,108 95,107 96,106 97,107 98,106 99,107 100,106 101,105 102,104 103,103 104,104 105,103 106,102 107,103 108,104 109,103 110,104 111,103 112,104 113,105 114,106 115,107 116,106 117,105 118,104 119,103 120,102 121,103 122,104 123,105 124,104 125,103 126,102 127,101 128,100 129,101 130,100 131,99 132,100 133,99 134,98 135,97 136,98 137,99 138,98 139,99 140,100 141,99 142,100 143,99 144,100 145,99 146,100 147,101 148,102 149,101 150,100 151,101 152,100 153,101 154,100 155,99 156,98 157,99 158,98 159,99 160,98 161,99 162,100 163,99 164,98 165,99 166,98 167,97 168,98 169,99 170,100 171,99 172,100 173,99 174,100 175,101 176,100 177,101 178,100 179,101 180,100 181,101 182,100 183,99 184,98 185,97 186,96 187,97 188,96 189,95 190,94 191,95 192,94 193,95 194,96 195,97 196,98 197,97 198,96 199,95 200,94 201,95 202,94 203,93 204,92 205,91 206,90 207,91 208,90 209,91 210,92 211,91 212,92 213,93 214,92 215,93 216,94 217,93 218,94 219,93 220,94 221,93 222,94 223,95 224,96 225,95 226,94 227,95 228,96 229,97 230,96 231,97 232,96 233,97 234,98 235,99 236,100 237,101 238,100 239,101 240,102 241,103 242,102 243,103 244,104 245,105 246,106 247,107 248,108 249,109 250,108 251,107 252,108 253,109 254,110 255,111 256,110 257,111 258,112 259,113 260,114 261,113 262,114 263,113 264,114 265,113 266,112 267,113 268,114 269,113 270,114 271,113 272,112 273,113 274,114 275,113 276,114 277,113 278,112 279,113 280,114 281,115 282,114 283,115 284,114 285,115 286,114 287,115 288,116 289,115 290,116 291,117 292,118 293,119 294,118 295,119 296,118 297,119 298,120 299,119 300,120 301,121 302,120 303,121 304,122 305,123 306,124 307,125 308,126 309,125 310,126 311,127 312,128 313,129 314,130 315,131 316,130 317,129 318,128 319,127 320,126 321,125 322,124 323,123 324,124 325,125 326,126 327,125 328,124 329,123 330,124 331,125 332,124 333,123 334,124 335,125 336,124 337,123 338,122 339,123 340,122 341,123 342,122 343,123 344,122 345,123 346,124 347,125 348,126 349,125 350,126 351,127 352,128 353,129 354,128 355,127 356,126 357,127 358,128 359,129 360,130 361,131 362,132 363,131 364,130 365,129 366,130 367,131 368,130 369,131 370,132 371,133 372,132 373,131 374,130 375,129 376,128 377,129 378,130 379,129 380,130 381,131 382,132 383,131 384,132 385,133 386,134 387,135 388,134 389,135 390,136 391,137 392,138 393,139 394,140 395,139 396,138 397,139 398,140 399,139 400,200 " style="fill:rgb(41,71,143);stroke:rgb(0,0,43)"></polygon></svg>