<svg xmlns="http://www.w3.org/2000/svg" xmlns:xlink="http://www.w3.org/1999/xlink" height="200" width="400"><polygon points="0,200 0,100 1,101 2,100 3,99 4,100 5,101 6,100 7,99 8,100 9,101 10,100 11,101 12,102 13,103 14,104 15,105 16,106 17,107 18,108 19,107 20,108 21,107 22,106 23,105 24,106 25,105 26,106 27,107 28,106 29,105 30,106 31,105 32,106 33,107 34,108 35,107 36,106 37,105 38,106 39,105 40,106 41,107 42,108 43,109 44,108 45,109 46,108 47,109 48,108 49,109 50,110 51,109 52,108 53,107 54,108 55,109 56,108 57,107 58,108 59,107 60,108 61,109 62,110 63,111 64,112 65,111 66,110 67,109 68,108 69,107 70,108 71,109 72,108 73,109 74,108 75,107 76,108 77,107 78,106 79,105 80,106 81,105 82,104 83,105 84,104 85,103 86,104 87,105 88,104 89,103 90,104 91,103 92,102 93,101 94,100 95,101 96,102 97,103 98,102 99,103 100,102 101,103 102,104 103,105 104,104 105,105 106,106 107,105 108,106 109,107 110,108 111,107 112,106 113,105 114,106 115,107 116,108 117,107 118,108 119,107 120,108 121,109 122,108 123,109 124,108 125,107 126,106 127,105 128,106 129,107 130,106 131,105 132,104 133,105 134,104 135,103 136,104 137,105 138,106 139,107 140,108 141,109 142,110 143,111 144,112 145,113 146,112 147,111 148,110 149,111 150,110 151,109 152,110 153,111 154,112 155,111 156,110 157,111 158,112 159,111 160,110 161,109 162,110 163,111 164,110 165,109 166,108 167,107 168,106 169,105 170,104 171,103 172,102 173,103 174,104 175,105 176,106 177,107 178,108 179,109 180,108 181,107 182,106 183,107 184,108 185,107 186,106 187,107 188,106 189,107 190,108 191,109 192,110 193,109 194,110 195,109 196,108 197,107 198,108 199,109 200,110 201,111 202,110 203,111 204,112 205,113 206,112 207,111 208,112 209,113 210,114 211,115 212,114 213,115 214,114 215,113 216,112 217,113 218,114 219,113 220,112 221,113 222,112 223,111 224,110 225,109 226,108 227,109 228,110 229,109 230,108 231,107 232,108 233,107 234,108 235,109 236,110 237,111 238,110 239,111 240,112 241,113 242,114 243,113 244,112 245,111 246,110 247,111 248,112 249,111 250,110 251,109 252,108 253,107 254,106 255,107 256,108 257,109 258,110 259,111 260,110 261,111 262,112 263,113 264,114 265,113 266,114 267,115 268,114 269,115 270,116 271,117 272,118 273,117 274,118 275,117 276,116 277,117 278,116 279,115 280,114 281,113 282,112 283,111 284,112 285,111 286,110 287,111 288,110 289,111 290,110 291,111 292,110 293,111 294,112 295,113 296,114 297,115 298,114 299,115 300,114 301,113 302,112 303,111 304,110 305,109 306,110 307,109 308,108 309,109 310,110 311,109 312,110 313,109 314,108 315,107 316,106 317,107 318,106 319,105 320,104 321,103 322,102 323,103 324,104 325,105 326,106 327,107 328,108 329,109 330,110 331,111 332,110 333,111 334,110 335,109 336,110 337,111 338,110 339,111 340,112 341,113 342,112 343,111 344,110 345,109 346,108 347,109 348,110 349,109 350,110 351,109 352,108 353,109 354,108 355,107 356,108 357,109 358,110 359,111 360,110 361,111 362,112 363,111 364,112 365,111 366,112 367,111 368,110 369,111 370,112 371,113 372,112 373,113 374,114 375,113 376,112 377,111 378,112 379,113 380,114 381,115 382,116 383,115 384,114 385,115 386,114 387,115 388,116 389,117 390,118 391,119 392,120 393,119 394,118 395,119 396,120 397,119 398,120 399,121 400,200 " style="fill:rgb(116,209,66);stroke:rgb(16,109,0)"></polygon><polygon points="0,200 0,100 1,99 2,98 3,99 4,100 5,99 6,100 7,101 8,100 9,101 10,102 11,101 12,100 13,99 14,100 15,99 16,98 17,97 18,96 19,95 20,94 21,93 22,92 23,93 24,94 25,95 26,96 27,95 28,96 29,97 30,96 31,97 32,96 33,97 34,96 35,97 36,96 37,97 38,96 39,97 40,96 41,95 42,94 43,93 44,92 45,93 46,92 47,93 48,94 49,93 50,94 51,95 52,94 53,95 54,96 55,97 56,96 57,95 58,96 59,95 60,96 61,97 62,96 63,95 64,94 65,93 66,94 67,93 68,92 69,93 70,94 71,95 72,96 73,97 74,98 75,97 76,98 77,97 78,98 79,97 80,96 81,97 82,98 83,99 84,100 85,101 86,102 87,101 88,100 89,101 90,102 91,101 92,102 93,101 94,100 95,101 96,100 97,101 98,102 99,101 100,102 101,103 102,104 103,105 104,106 105,105 106,104 107,105 108,104 109,103 110,102 111,103 112,104 113,105 114,104 115,103 116,104 117,103 118,102 119,101 120,102 121,103 122,104 123,103 124,104 125,103 126,102 127,103 128,104 129,103 130,102 131,103 132,104 133,103 134,102 135,101 136,102 137,103 138,102 139,103 140,104 141,103 142,104 143,105 144,104 145,103 146,102 147,101 148,100 149,101 150,100 151,101 152,100 153,99 154,98 155,99 156,100 157,99 158,98 159,97 160,96 161,95 162,96 163,97 164,98 165,99 166,100 167,101 168,102 169,103 170,104 171,103 172,104 173,103 174,104 175,105 176,104 177,103 178,104 179,103 180,104 181,105 182,104 183,103 184,102 185,101 186,102 187,101 188,100 189,101 190,102 191,101 192,102 193,101 194,102 195,103 196,104 197,105 198,104 199,103 200,102 201,103 202,104 203,105 204,106 205,107 206,106 207,107 208,106 209,105 210,106 211,105 212,104 213,105 214,106 215,107 216,108 217,107 218,106 219,107 220,108 221,109 222,108 223,109 224,108 225,107 226,108 227,109 228,110 229,109 230,108 231,109 232,108 233,109 234,108 235,109 236,110 237,109 238,108 239,109 240,110 241,109 242,108 243,107 244,106 245,105 246,106 247,105 248,106 249,105 250,104 251,105 252,104 253,103 254,104 255,105 256,106 257,107 258,106 259,105 260,104 261,105 262,106 263,107 264,108 265,107 266,106 267,105 268,106 269,107 270,108 271,107 272,108 273,109 274,110 275,111 276,110 277,111 278,110 279,109 280,110 281,111 282,112 283,113 284,112 285,113 286,114 287,113 288,114 289,115 290,116 291,117 292,118 293,117 294,118 295,119 296,120 297,119 298,120 299,119 300,118 301,117 302,118 303,119 304,118 305,117 306,118 307,117 308,116 309,117 310,118 311,117 312,116 313,115 314,116 315,117 316,118 317,119 318,118 319,119 320,120 321,119 322,120 323,119 324,118 325,119 326,118 327,119 328,118 329,119 330,118 331,117 332,116 333,115 334,114 335,113 336,114 337,115 338,114 339,115 340,114 341,113 342,114 343,113 344,112 345,113 346,114 347,115 348,116 349,115 350,114 351,113 352,114 353,115 354,114 355,115 356,114 357,115 358,114 359,115 360,114 361,115 362,116 363,117 364,118 365,119 366,120 367,121 368,120 369,119 370,118 371,117 372,118 373,117 374,116 375,117 376,118 377,117 378,116 379,117 380,118 381,117 382,116 383,115 384,116 385,117 386,118 387,119 388,118 389,119 390,120 391,119 392,118 393,117 394,118 395,119 396,120 397,121 398,120 399,121 400,200 " style="fill:rgb(0,18,182);stroke:rgb(0,0,82)"></polygon><polygon points="0,200 0,100 1,99 2,100 3,99 4,98 5,97 6,96 7,95 8,94 9,95 10,96 11,95 12,94 13,93 14,94 15,93 16,94 17,93 18,92 19,91 20,90 21,89 22,88 23,87 24,86 25,85 26,86 27,85 28,86 29,85 30,84 31,85 32,84 33,83 34,82 35,81 36,80 37,81 38,82 39,81 40,82 41,81 42,80 43,81 44,80 45,81 46,82 47,81 48,80 49,81 50,82 51,83 52,82 53,81 54,82 55,81 56,80 57,79 58,80 59,79 60,80 61,81 62,80 63,79 64,80 65,81 66,80 67,81 68,80 69,79 70,78 71,79 72,80 73,79 74,78 75,77 76,78 77,79 78,80 79,79 80,78 81,79 82,80 83,81 84,80 85,81 86,82 87,81 88,82 89,81 90,80 91,79 92,78 93,77 94,78 95,77 96,76 97,77 98,78 99,79 100,78 101,77 102,76 103,75 104,74 105,73 106,72 107,71 108,72 109,73 110,74 111,75 112,76 113,75 114,74 115,73 116,74 117,75 118,74 119,73 120,72 121,71 122,70 123,71 124,70 125,71 126,72 127,71 128,72 129,71 130,72 131,73 132,74 133,75 134,74 135,73 136,74 137,75 138,76 139,77 140,76 141,77 142,76 143,75 144,76 145,75 146,74 147,73 148,74 149,73 150,72 151,73 152,74 153,75 154,76 155,75 156,76 157,75 158,74 159,73 160,72 161,73 162,74 163,73 164,72 165,73 166,72 167,71 168,72 169,73 170,72 171,73 172,74 173,73 174,74 175,75 176,74 177,73 178,72 179,73 180,72 181,73 182,72 183,71 184,72 185,73 186,72 187,73 188,72 189,71 190,72 191,71 192,70 193,69 194,70 195,69 196,70 197,71 198,70 199,71 200,70 201,71 202,72 203,73 204,72 205,71 206,72 207,73 208,72 209,73 210,74 211,75 212,74 213,73 214,74 215,75 216,74 217,73 218,72 219,71 220,72 221,71 222,72 223,73 224,72 225,71 226,72 227,73 228,72 229,71 230,70 231,69 232,68 233,69 234,70 235,69 236,70 237,71 238,70 239,69 240,68 241,67 242,68 243,69 244,70 245,69 246,70 247,69 248,68 249,67 250,68 251,69 252,70 253,69 254,70 255,69 256,68 257,67 258,66 259,65 260,64 261,63 262,64 263,63 264,62 265,63 266,64 267,65 268,66 269,67 270,66 271,65 272,64 273,65 274,64 275,65 276,66 277,65 278,64 279,63 280,64 281,65 282,66 283,67 284,68 285,67 286,66 287,67 288,66 289,65 290,66 291,65 292,64 293,65 294,64 295,65 296,66 297,65 298,66 299,65 300,66 301,65 302,64 303,65 304,64 305,63 306,64 307,63 308,64 309,63 310,64 311,65 312,66 313,67 314,68 315,69 316,70 317,71 318,72 319,71 320,72 321,71 322,70 323,71 324,70 325,69 326,70 327,69 328,70 329,71 330,72 331,73 332,74 333,73 334,72 335,73 336,74 337,75 338,74 339,73 340,74 341,73 342,74 343,75 344,74 345,75 346,74 347,73 348,74 349,75 350,76 351,75 352,76 353,77 354,76 355,77 356,76 357,75 358,76 359,77 360,76 361,75 362,74 363,73 364,74 365,73 366,74 367,73 368,72 369,73 370,72 371,73 372,74 373,73 374,72 375,71 376,72 377,73 378,72 379,71 380,70 381,71 382,70 383,71 384,70 385,69 386,70 387,71 388,72 389,73 390,74 391,73 392,72 393,73 394,72 395,71 396,70 397,69 398,68 399,69 400,200 " style="fill:rgb(56,137,72);stroke:rgb(0,37,0)"></polygon><polygon points="0,200 0,100 1,99 2,98 3,97 4,96 5,97 6,98 7,97 8,96 9,97 10,96 11,95 12,96 13,97 14,96 15,95 16,96 17,97 18,96 19,97 20,98 21,99 22,98 23,99 24,98 25,99 26,98 27,99 28,100 29,99 30,98 31,99 32,98 33,97 34,98 35,97 36,98 37,97 38,96 39,97 40,98 41,97 42,96 43,97 44,96 45,95 46,94 47,95 48,96 49,97 50,96 51,97 52,98 53,99 54,98 55,97 56,98 57,97 58,98 59,97 60,96 61,95 62,94 63,93 64,94 65,95 66,94 67,95 68,94 69,93 70,94 71,95 72,96 73,97 74,96 75,97 76,96 77,95 78,96 79,95 80,94 81,95 82,94 83,93 84,94 85,93 86,92 87,93 88,92 89,91 90,92 91,91 92,92 93,93 94,92 95,91 96,92 97,93 98,94 99,95 100,96 101,97 102,98 103,97 104,98 105,99 106,100 107,101 108,100 109,101 110,100 111,99 112,100 113,99 114,98 115,99 116,98 117,97 118,98 119,99 120,100 121,101 122,102 123,101 124,100 125,99 126,98 127,97 128,98 129,97 130,98 131,97 132,98 133,99 134,100 135,99 136,98 137,99 138,98 139,97 140,96 141,95 142,94 143,95 144,96 145,97 146,98 147,99 148,98 149,97 150,96 151,97 152,98 153,99 154,100 155,101 156,102 157,103 158,104 159,103 160,104 161,105 162,106 163,105 164,104 165,103 166,104 167,103 168,102 169,103 170,102 171,101 172,100 173,101 174,102 175,101 176,102 177,101 178,100 179,99 180,100 181,99 182,100 183,101 184,100 185,99 186,98 187,97 188,96 189,95 190,96 191,95 192,96 193,97 194,98 195,99 196,100 197,99 198,100 199,99 200,100 201,99 202,100 203,101 204,102 205,101 206,102 207,101 208,100 209,99 210,100 211,99 212,98 213,99 214,100 215,99 216,98 217,97 218,96 219,95 220,94 221,93 222,92 223,91 224,92 225,91 226,92 227,91 228,92 229,93 230,92 231,93 232,92 233,91 234,92 235,91 236,90 237,89 238,90 239,91 240,90 241,89 242,88 243,87 244,86 245,87 246,86 247,85 248,86 249,87 250,88 251,87 252,86 253,85 254,84 255,85 256,84 257,83 258,84 259,85 260,86 261,87 262,88 263,87 264,86 265,87 266,88 267,89 268,90 269,89 270,88 271,89 272,90 273,89 274,88 275,89 276,90 277,91 278,90 279,91 280,92 281,91 282,92 283,93 284,92 285,91 286,92 287,91 288,92 289,91 290,90 291,91 292,90 293,91 294,90 295,91 296,92 297,91 298,90 299,91 300,90 301,89 302,88 303,89 304,88 305,87 306,86 307,87 308,88 309,87 310,86 311,85 312,84 313,85 314,84 315,85 316,86 317,85 318,86 319,87 320,88 321,87 322,88 323,89 324,90 325,89 326,90 327,89 328,90 329,89 330,88 331,89 332,88 333,89 334,90 335,89 336,88 337,87 338,86 339,85 340,84 341,85 342,86 343,85 344,86 345,87 346,86 347,87 348,88 349,89 350,90 351,91 352,90 353,91 354,92 355,93 356,94 357,93 358,92 359,91 360,92 361,93 362,94 363,95 364,94 365,95 366,94 367,95 368,96 369,97 370,96 371,97 372,96 373,97 374,96 375,97 376,96 377,97 378,96 379,97 380,96 381,97 382,98 383,97 384,96 385,95 386,94 387,95 388,94 389,93 390,92 391,93 392,94 393,95 394,94 395,95 396,94 397,93 398,92 399,93 400,200 " style="fill:rgb(69,33,165);stroke:rgb(0,0,65)"></polygon><polygon points="0,200 0,100 1,101 2,102 3,103 4,104 5,103 6,104 7,103 8,104 9,103 10,102 11,101 12,102 13,101 14,102 15,101 16,100 17,99 18,100 19,99 20,98 21,99 22,98 23,97 24,96 25,97 26,98 27,99 28,100 29,99 30,98 31,97 32,98 33,97 34,98 35,99 36,100 37,101 38,100 39,101 40,100 41,101 42,102 43,101 44,100 45,99 46,98 47,97 48,96 49,97 50,96 51,97 52,96 53,97 54,98 55,99 56,100 57,101 58,100 59,99 60,100 61,101 62,102 63,103 64,102 65,103 66,102 67,103 68,102 69,103 70,104 71,105 72,106 73,105 74,106 75,107 76,106 77,105 78,106 79,105 80,106 81,107 82,106 83,105 84,106 85,107 86,106 87,105 88,106 89,107 90,106 91,105 92,104 93,105 94,104 95,103 96,104 97,105 98,106 99,107 100,108 101,107 102,106 103,107 104,108 105,109 106,108 107,109 108,108 109,109 110,108 111,109 112,108 113,107 114,108 115,109 116,108 117,109 118,110 119,111 120,112 121,111 122,112 123,111 124,110 125,109 126,110 127,109 128,108 129,109 130,110 131,109 132,108 133,109 134,108 135,109 136,110 137,109 138,110 139,109 140,108 141,109 142,108 143,107 144,108 145,109 146,108 147,109 148,110 149,111 150,110 151,109 152,110 153,109 154,108 155,107 156,108 157,107 158,108 159,107 160,108 161,109 162,110 163,109 164,110 165,111 166,112 167,111 168,110 169,109 170,108 171,107 172,106 173,105 174,104 175,105 176,104 177,103 178,104 179,105 180,104 181,103 182,102 183,101 184,102 185,103 186,102 187,101 188,102 189,101 190,102 191,101 192,100 193,101 194,100 195,101 196,100 197,101 198,102 199,101 200,100 201,99 202,100 203,101 204,102 205,101 206,100 207,99 208,98 209,97 210,98 211,99 212,98 213,99 214,98 215,97 216,96 217,95 218,96 219,97 220,96 221,97 222,98 223,97 224,96 225,95 226,94 227,95 228,94 229,95 230,94 231,95 232,96 233,95 234,96 235,97 236,96 237,97 238,96 239,97 240,96 241,95 242,96 243,97 244,96 245,95 246,96 247,95 248,96 249,95 250,96 251,95 252,96 253,97 254,98 255,99 256,98 257,99 258,98 259,97 260,96 261,97 262,96 263,97 264,96 265,97 266,98 267,99 268,100 269,101 270,100 271,101 272,100 273,99 274,100 275,99 276,98 277,99 278,100 279,99 280,98 281,99 282,100 283,101 284,100 285,99 286,98 287,97 288,98 289,97 290,96 291,95 292,96 293,97 294,98 295,97 296,96 297,95 298,96 299,97 300,96 301,97 302,98 303,99 304,98 305,97 306,98 307,97 308,96 309,97 310,96 311,97 312,96 313,97 314,96 315,95 316,94 317,95 318,96 319,97 320,98 321,97 322,96 323,95 324,96 325,95 326,94 327,93 328,94 329,95 330,94 331,93 332,92 333,93 334,92 335,91 336,92 337,93 338,92 339,93 340,94 341,95 342,96 343,95 344,94 345,95 346,94 347,93 348,94 349,95 350,94 351,95 352,94 353,95 354,96 355,95 356,94 357,95 358,96 359,95 360,96 361,95 362,96 363,97 364,96 365,95 366,96 367,95 368,94 369,93 370,92 371,93 372,92 373,93 374,92 375,93 376,94 377,93 378,94 379,93 380,94 381,95 382,96 383,95 384,96 385,97 386,96 387,95 388,96 389,95 390,94 391,93 392,94 393,95 394,94 395,93 396,92 397,93 398,94 399,95 400,200 " style="fill:rgb(195,26,189);stroke:rgb(95,0,89)"></polygon><polygon points="0,200 0,100 1,99 2,98 3,97 4,96 5,95 6,94 7,93 8,92 9,93 10,92 11,91 12,92 13,93 14,94 15,93 16,92 17,91 18,92 19,93 20,94 21,95 22,96 23,95 24,94 25,95 26,94 27,93 28,92 29,93 30,92 31,93 32,92 33,91 34,90 35,89 36,90 37,91 38,90 39,89 40,90 41,91 42,90 43,89 44,88 45,87 46,86 47,85 48,86 49,85 50,86 51,85 52,86 53,85 54,84 55,85 56,86 57,87 58,88 59,87 60,88 61,87 62,86 63,85 64,86 65,85 66,86 67,87 68,86 69,87 70,88 71,89 72,90 73,91 74,92 75,93 76,94 77,93 78,94 79,93 80,94 81,93 82,92 83,93 84,94 85,93 86,92 87,91 88,92 89,93 90,94 91,93 92,94 93,93 94,94 95,93 96,92 97,91 98,90 99,89 100,88 101,89 102,88 103,87 104,86 105,87 106,88 107,89 108,88 109,87 110,88 111,87 112,86 113,87 114,88 115,87 116,86 117,85 118,84 119,85 120,84 121,85 122,86 123,85 124,86 125,85 126,86 127,85 128,86 129,87 130,86 131,87 132,88 133,89 134,90 135,91 136,92 137,91 138,90 139,89 140,90 141,89 142,88 143,87 144,86 145,87 146,88 147,89 148,90 149,89 150,88 151,87 152,86 153,85 154,86 155,85 156,84 157,83 158,82 159,83 160,84 161,83 162,84 163,85 164,86 165,87 166,86 167,87 168,86 169,87 170,86 171,85 172,84 173,85 174,84 175,85 176,86 177,85 178,86 179,87 180,86 181,87 182,88 183,87 184,88 185,89 186,90 187,91 188,90 189,91 190,92 191,91 192,90 193,91 194,92 195,91 196,92 197,91 198,90 199,89 200,90 201,89 202,90 203,91 204,90 205,91 206,90 207,91 208,90 209,91 210,92 211,93 212,94 213,95 214,94 215,93 216,94 217,93 218,92 219,91 220,92 221,91 222,90 223,89 224,90 225,89 226,90 227,89 228,88 229,89 230,88 231,87 232,88 233,89 234,90 235,89 236,88 237,87 238,88 239,89 240,90 241,91 242,92 243,93 244,92 245,91 246,92 247,91 248,90 249,89 250,88 251,89 252,88 253,89 254,88 255,87 256,88 257,87 258,86 259,85 260,84 261,83 262,82 263,83 264,84 265,85 266,86 267,87 268,86 269,87 270,86 271,85 272,84 273,85 274,86 275,87 276,86 277,85 278,84 279,83 280,84 281,83 282,84 283,85 284,86 285,85 286,84 287,85 288,86 289,87 290,88 291,89 292,90 293,91 294,90 295,91 296,92 297,93 298,94 299,95 300,94 301,95 302,96 303,97 304,96 305,95 306,94 307,93 308,92 309,93 310,94 311,95 312,94 313,93 314,94 315,93 316,94 317,95 318,94 319,95 320,94 321,93 322,94 323,93 324,92 325,93 326,94 327,93 328,94 329,95 330,96 331,97 332,98 333,97 334,96 335,97 336,96 337,97 338,98 339,99 340,98 341,99 342,100 343,99 344,98 345,97 346,96 347,95 348,96 349,97 350,96 351,97 352,98 353,97 354,98 355,99 356,98 357,99 358,98 359,99 360,98 361,99 362,98 363,99 364,98 365,97 366,98 367,99 368,98 369,99 370,98 371,97 372,98 373,99 374,100 375,101 376,100 377,99 378,98 379,97 380,98 381,99 382,100 383,101 384,102 385,101 386,100 387,99 388,100 389,101 390,102 391,101 392,102 393,101 394,102 395,103 396,104 397,103 398,104 399,103 400,200 " style="fill:rgb(210,221,10);stroke:rgb(110,121,0)"></polygon><polygon points="0,200 0,100 1,101 2,100 3,99 4,100 5,99 6,100 7,101 8,100 9,99 10,100 11,99 12,100 13,99 14,100 15,101 16,102 17,101 18,100 19,99 20,100 21,99 22,100 23,101 24,102 25,103 26,102 27,103 28,104 29,103 30,104 31,105 32,106 33,105 34,104 35,103 36,102 37,101 38,102 39,101 40,100 41,101 42,100 43,99 44,98 45,99 46,100 47,101 48,100 49,99 50,100 51,101 52,100 53,101 54,100 55,99 56,98 57,99 58,100 59,99 60,98 61,97 62,96 63,95 64,94 65,95 66,94 67,93 68,92 69,93 70,92 71,93 72,94 73,93 74,94 75,93 76,92 77,91 78,92 79,91 80,92 81,91 82,92 83,93 84,94 85,95 86,96 87,95 88,94 89,93 90,92 91,91 92,92 93,91 94,90 95,91 96,92 97,91 98,90 99,91 100,92 101,91 102,92 103,91 104,90 105,89 106,88 107,89 108,90 109,89 110,90 111,89 112,88 113,87 114,86 115,87 116,88 117,89 118,90 119,91 120,90 121,89 122,90 123,91 124,92 125,91 126,92 127,93 128,92 129,93 130,92 131,91 132,92 133,93 134,94 135,95 136,96 137,97 138,96 139,97 140,98 141,99 142,98 143,99 144,100 145,101 146,100 147,101 148,102 149,103 150,102 151,103 152,104 153,105 154,106 155,107 156,108 157,109 158,110 159,111 160,110 161,111 162,112 163,111 164,112 165,111 166,110 167,111 168,112 169,111 170,112 171,111 172,112 173,113 174,112 175,111 176,112 177,113 178,114 179,113 180,114 181,113 182,112 183,111 184,112 185,111 186,112 187,113 188,114 189,113 190,112 191,113 192,112 193,111 194,110 195,111 196,112 197,111 198,110 199,109 200,110 201,109 202,110 203,111 204,112 205,113 206,114 207,113 208,114 209,113 210,112 211,111 212,112 213,111 214,110 215,111 216,112 217,111 218,112 219,113 220,112 221,113 222,114 223,113 224,112 225,111 226,112 227,113 228,112 229,113 230,112 231,111 232,112 233,111 234,112 235,113 236,112 237,111 238,110 239,111 240,112 241,113 242,114 243,115 244,114 245,115 246,114 247,113 248,114 249,113 250,114 251,113 252,112 253,113 254,114 255,115 256,114 257,115 258,114 259,115 260,114 261,115 262,116 263,117 264,118 265,119 266,118 267,117 268,118 269,117 270,116 271,117 272,118 273,119 274,120 275,119 276,120 277,119 278,120 279,121 280,122 281,121 282,120 283,119 284,120 285,119 286,118 287,117 288,116 289,117 290,116 291,117 292,118 293,117 294,116 295,117 296,118 297,117 298,116 299,115 300,114 301,115 302,114 303,115 304,114 305,113 306,112 307,111 308,110 309,109 310,110 311,111 312,110 313,109 314,108 315,109 316,110 317,109 318,108 319,109 320,110 321,109 322,108 323,107 324,108 325,107 326,106 327,105 328,104 329,103 330,104 331,103 332,104 333,103 334,102 335,101 336,102 337,101 338,100 339,101 340,102 341,103 342,102 343,103 344,104 345,103 346,104 347,103 348,102 349,103 350,102 351,101 352,100 353,101 354,100 355,99 356,98 357,99 358,98 359,99 360,100 361,101 362,102 363,101 364,102 365,101 366,100 367,99 368,98 369,97 370,96 371,97 372,98 373,99 374,98 375,99 376,98 377,99 378,100 379,99 380,98 381,99 382,98 383,97 384,98 385,97 386,96 387,95 388,94 389,93 390,94 391,93 392,94 393,95 394,94 395,95 396,96 397,97 398,96 399,97 400,200 " style="fill:rgb(23,89,197);stroke:rgb(0,0,97)"></polygon><polygon points="0,200 0,100 1,101 2,102 3,103 4,102 5,101 6,100 7,99 8,98 9,99 10,98 11,99 12,98 13,99 14,100 15,99 16,100 17,101 18,100 19,99 20,100 21,99 22,98 23,99 24,100 25,101 26,100 27,101 28,102 29,101 30,100 31,101 32,100 33,101 34,100 35,101 36,102 37,101 38,100 39,99 40,100 41,99 42,98 43,97 44,98 45,97 46,96 47,95 48,96 49,97 50,96 51,95 52,94 53,93 54,94 55,95 56,96 57,95 58,94 59,93 60,92 61,93 62,92 63,93 64,94 65,95 66,96 67,97 68,98 69,97 70,96 71,95 72,94 73,95 74,96 75,95 76,96 77,97 78,96 79,97 80,98 81,99 82,98 83,97 84,96 85,95 86,94 87,93 88,92 89,93 90,94 91,95 92,96 93,95 94,96 95,95 96,94 97,95 98,94 99,95 100,94 101,93 102,92 103,93 104,92 105,91 106,90 107,91 108,90 109,89 110,88 111,89 112,90 113,91 114,90 115,89 116,90 117,89 118,88 119,87 120,86 121,87 122,88 123,89 124,90 125,91 126,90 127,91 128,92 129,91 130,90 131,91 132,90 133,91 134,92 135,91 136,92 137,91 138,92 139,93 140,92 141,91 142,90 143,89 144,90 145,89 146,90 147,91 148,90 149,91 150,90 151,91 152,92 153,91 154,92 155,93 156,92 157,93 158,92 159,91 160,90 161,91 162,92 163,91 164,90 165,89 166,88 167,89 168,90 169,89 170,88 171,87 172,88 173,87 174,88 175,87 176,86 177,87 178,86 179,85 180,86 181,85 182,84 183,85 184,84 185,83 186,82 187,81 188,80 189,81 190,80 191,81 192,80 193,79 194,80 195,81 196,82 197,83 198,84 199,85 200,84 201,83 202,84 203,85 204,84 205,83 206,82 207,83 208,82 209,81 210,82 211,83 212,84 213,85 214,84 215,83 216,82 217,81 218,80 219,81 220,80 221,81 222,82 223,83 224,82 225,83 226,82 227,81 228,80 229,79 230,80 231,79 232,78 233,77 234,78 235,77 236,78 237,77 238,78 239,79 240,78 241,79 242,78 243,77 244,78 245,77 246,78 247,77 248,78 249,79 250,80 251,81 252,82 253,81 254,80 255,81 256,80 257,79 258,78 259,77 260,78 261,77 262,76 263,75 264,76 265,77 266,78 267,77 268,78 269,79 270,78 271,79 272,80 273,81 274,80 275,81 276,82 277,81 278,80 279,79 280,80 281,79 282,78 283,77 284,78 285,79 286,78 287,79 288,78 289,77 290,78 291,79 292,78 293,77 294,76 295,75 296,74 297,73 298,74 299,75 300,76 301,75 302,74 303,75 304,74 305,75 306,76 307,77 308,78 309,77 310,78 311,79 312,80 313,81 314,80 315,79 316,78 317,77 318,78 319,79 320,80 321,79 322,78 323,79 324,80 325,79 326,80 327,81 328,82 329,83 330,82 331,83 332,84 333,85 334,86 335,85 336,84 337,85 338,86 339,87 340,86 341,85 342,84 343,85 344,86 345,85 346,86 347,85 348,86 349,87 350,86 351,85 352,84 353,85 354,86 355,87 356,88 357,87 358,88 359,87 360,86 361,85 362,86 363,87 364,88 365,87 366,88 367,87 368,86 369,87 370,86 371,85 372,86 373,87 374,86 375,85 376,84 377,85 378,86 379,87 380,88 381,87 382,88 383,89 384,90 385,91 386,90 387,89 388,90 389,89 390,88 391,87 392,86 393,85 394,84 395,83 396,84 397,83 398,82 399,83 400,200 " style="fill:rgb(158,150,98);stroke:rgb(58,50,0)"></polygon><polygon points="0,200 0,100 1,101 2,102 3,103 4,104 5,105 6,106 7,107 8,106 9,105 10,104 11,103 12,102 13,101 14,100 15,101 16,102 17,103 18,102 19,101 20,102 21,103 22,104 23,103 24,102 25,101 26,102 27,103 28,104 29,105 30,106 31,107 32,106 33,105 34,104 35,103 36,104 37,103 38,102 39,101 40,100 41,99 42,100 43,99 44,100 45,99 46,100 47,101 48,100 49,99 50,100 51,99 52,98 53,97 54,96 55,97 56,96 57,97 58,96 59,95 60,94 61,93 62,92 63,93 64,94 65,93 66,92 67,93 68,94 69,93 70,94 71,95 72,94 73,93 74,94 75,93 76,92 77,91 78,92 79,91 80,90 81,91 82,92 83,93 84,92 85,91 86,92 87,91 88,90 89,89 90,88 91,89 92,90 93,91 94,92 95,91 96,92 97,93 98,92 99,93 100,92 101,93 102,94 103,95 104,96 105,95 106,96 107,95 108,94 109,93 110,92 111,93 112,94 113,95 114,96 115,95 116,94 117,93 118,92 119,91 120,92 121,93 122,92 123,91 124,92 125,93 126,94 127,93 128,94 129,95 130,94 131,95 132,94 133,93 134,92 135,91 136,90 137,89 138,90 139,91 140,92 141,93 142,92 143,91 144,92 145,93 146,94 147,95 148,96 149,95 150,94 151,93 152,92 153,93 154,92 155,91 156,92 157,93 158,94 159,95 160,94 161,93 162,92 163,93 164,94 165,93 166,92 167,91 168,92 169,93 170,94 171,95 172,96 173,95 174,94 175,93 176,94 177,95 178,96 179,95 180,94 181,95 182,94 183,93 184,94 185,95 186,96 187,95 188,96 189,97 190,98 191,99 192,100 193,99 194,100 195,101 196,102 197,103 198,102 199,101 200,100 201,99 202,98 203,97 204,96 205,97 206,96 207,97 208,98 209,97 210,96 211,97 212,96 213,95 214,94 215,93 216,92 217,93 218,92 219,91 220,92 221,93 222,94 223,93 224,94 225,95 226,94 227,93 228,92 229,93 230,94 231,95 232,96 233,97 234,98 235,99 236,98 237,99 238,98 239,99 240,98 241,99 242,100 243,101 244,102 245,103 246,104 247,105 248,104 249,105 250,106 251,105 252,104 253,103 254,104 255,105 256,104 257,105 258,106 259,107 260,106 261,107 262,108 263,109 264,110 265,109 266,108 267,109 268,110 269,109 270,110 271,109 272,110 273,109 274,108 275,109 276,110 277,109 278,108 279,109 280,108 281,109 282,108 283,107 284,108 285,109 286,108 287,109 288,110 289,111 290,110 291,109 292,108 293,107 294,106 295,107 296,108 297,107 298,106 299,107 300,106 301,105 302,104 303,103 304,102 305,103 306,102 307,103 308,104 309,105 310,104 311,103 312,102 313,101 314,102 315,103 316,102 317,101 318,102 319,101 320,100 321,99 322,100 323,101 324,100 325,99 326,100 327,101 328,102 329,101 330,102 331,101 332,102 333,103 334,104 335,105 336,106 337,105 338,106 339,105 340,104 341,105 342,104 343,103 344,102 345,103 346,104 347,103 348,102 349,103 350,104 351,103 352,104 353,103 354,104 355,105 356,104 357,105 358,104 359,105 360,104 361,103 362,104 363,105 364,106 365,107 366,106 367,105 368,106 369,105 370,106 371,107 372,106 373,107 374,108 375,109 376,110 377,111 378,112 379,111 380,112 381,113 382,112 383,111 384,112 385,113 386,114 387,115 388,116 389,115 390,114 391,113 392,114 393,115 394,116 395,117 396,118 397,117 398,116 399,117 400,200 " style="fill:rgb(97,10,169);stroke:rgb(0,0,69)"></polygon><polygon points="0,200 0,100 1,101 2,102 3,101 4,100 5,101 6,102 7,103 8,102 9,101 10,100 11,101 12,100 13,99 14,100 15,99 16,98 17,97 18,98 19,97 20,98 21,97 22,96 23,97 24,98 25,97 26,96 27,95 28,94 29,93 30,94 31,93 32,92 33,93 34,94 35,95 36,94 37,93 38,94 39,95 40,94 41,93 42,94 43,95 44,94 45,93 46,94 47,95 48,96 49,95 50,94 51,95 52,94 53,93 54,94 55,95 56,94 57,93 58,92 59,93 60,94 61,95 62,94 63,95 64,96 65,97 66,98 67,97 68,96 69,97 70,98 71,97 72,98 73,97 74,96 75,95 76,96 77,97 78,96 79,97 80,98 81,97 82,98 83,97 84,98 85,99 86,98 87,99 88,100 89,99 90,98 91,99 92,100 93,99 94,98 95,99 96,98 97,97 98,96 99,95 100,94 101,93 102,94 103,93 104,94 105,95 106,96 107,95 108,96 109,95 110,96 111,95 112,96 113,97 114,98 115,97 116,98 117,97 118,98 119,97 120,98 121,99 122,98 123,97 124,96 125,97 126,96 127,97 128,98 129,97 130,96 131,97 132,98 133,99 134,98 135,99 136,98 137,97 138,96 139,97 140,98 141,99 142,98 143,97 144,96 145,95 146,96 147,95 148,94 149,93 150,94 151,95 152,96 153,95 154,96 155,97 156,98 157,97 158,96 159,97 160,96 161,97 162,98 163,97 164,96 165,95 166,96 167,95 168,96 169,97 170,96 171,95 172,96 173,97 174,98 175,99 176,98 177,99 178,100 179,99 180,98 181,99 182,100 183,101 184,102 185,103 186,104 187,103 188,104 189,103 190,104 191,105 192,104 193,105 194,106 195,105 196,106 197,105 198,104 199,103 200,102 201,101 202,100 203,99 204,98 205,99 206,100 207,101 208,102 209,101 210,102 211,103 212,102 213,103 214,104 215,103 216,104 217,105 218,104 219,103 220,104 221,103 222,104 223,103 224,102 225,101 226,100 227,101 228,100 229,99 230,100 231,101 232,100 233,101 234,100 235,101 236,102 237,103 238,104 239,103 240,102 241,101 242,100 243,99 244,100 245,101 246,102 247,101 248,100 249,99 250,98 251,97 252,98 253,97 254,96 255,97 256,96 257,95 258,94 259,95 260,96 261,95 262,96 263,97 264,96 265,97 266,96 267,97 268,96 269,97 270,98 271,99 272,98 273,97 274,98 275,97 276,98 277,97 278,96 279,95 280,96 281,95 282,96 283,95 284,96 285,97 286,96 287,95 288,96 289,95 290,94 291,95 292,96 293,97 294,96 295,97 296,96 297,97 298,98 299,97 300,98 301,97 302,98 303,97 304,98 305,97 306,96 307,95 308,94 309,93 310,94 311,93 312,92 313,91 314,92 315,91 316,92 317,93 318,94 319,95 320,94 321,93 322,92 323,91 324,92 325,91 326,90 327,89 328,88 329,87 330,88 331,87 332,88 333,89 334,88 335,89 336,90 337,89 338,90 339,91 340,90 341,91 342,90 343,91 344,90 345,91 346,92 347,93 348,92 349,91 350,92 351,93 352,94 353,93 354,94 355,93 356,94 357,95 358,96 359,97 360,98 361,97 362,98 363,99 364,100 365,99 366,100 367,101 368,102 369,103 370,104 371,105 372,106 373,105 374,104 375,105 376,106 377,107 378,108 379,107 380,108 381,109 382,110 383,111 384,110 385,111 386,110 387,111 388,110 389,109 390,110 391,111 392,110 393,111 394,110 395,109 396,110 397,111 398,110 399,111 400,200 " style="fill:rgb(227,215,75);stroke:rgb(127,115,0)"></polygon></svg>